<?xml version="1.0" encoding="UTF-8"?>
<svg id="Layer_1" xmlns="http://www.w3.org/2000/svg" viewBox="0 0 1080 1920" preserveAspectRatio="none">
  <defs>
    <style>
      .cls-1 {
        fill: #c40038;
      }

      .cls-2 {
        fill: #b20025;
      }

      .cls-3, .cls-4 {
        fill: #fff;
      }

      .cls-5 {
        fill: #800024;
      }

      .cls-6 {
        fill: #06070e;
      }

      .cls-4 {
        font-family: Pixel, Pixel;
        font-size: 35.14px;
      }

      .cls-7 {
        fill: #990029;
      }
    </style>
  </defs>
  <rect class="cls-2" x="2.03" width="1075.51" height="1920"/>
  <path class="cls-3" d="M468.04,218h32.17v-7.75h-24.03v-12.59h22.63v-7.75h-22.63v-11.73h24.03v-7.75h-32.17v47.55ZM436.35,170.45h-8.14v47.55h30.44v-7.81h-22.29v-39.74ZM223.75,194.22c-.41-16.19,22-23.22,31.11-10.08l6.21-5.55c-13.78-17.87-46.43-7.64-45.47,15.64-.56,23.81,32.36,34.13,46.5,14.31l-6.97-4.59c-9.12,13.52-31.77,6.69-31.38-9.73ZM413.96,192.99c2.14-4,2.04-9.22.84-12.64-.95-2.72-2.82-5.22-5.19-6.9-1.36-.96-3-1.81-4.88-2.36-2.08-.61-4.12-.77-6.51-.77h-20.03v47.68h8.17v-16.4h9.99c.69,0,1.36,0,2-.04l9.38,16.44h9.99l-10.83-18.42c3.57-1.7,5.8-4.23,7.06-6.59ZM399.99,193.89c-.74.08-1.64.11-2.51.11h-11.13v-16.06h11.36c.95,0,1.8.06,2.45.08,4.26.11,7.68,3.67,7.68,7.95s-3.45,7.47-7.85,7.92ZM303.87,189.99h-22.14v-19.54h-8.14v47.55h8.14v-20.33h22.14v20.33h8.14v-47.55h-8.14v19.54ZM341.01,170.45l-19.38,47.55h8.79l3.99-10.1h21.04l3.93,10.1h9.06l-19.45-47.55h-7.97ZM337.46,200.16c1.98-5.02,5.76-14.8,7.46-19.06,1.71,4.28,5.48,14.01,7.46,19.06h-14.93ZM776.99,178.13h15.24v39.87h8.14v-39.87h15.24v-7.68h-38.62v7.68ZM759.31,218h8.14v-47.55h-8.14v47.55ZM855.44,170.45v19.54h-22.14v-19.54h-8.14v47.55h8.14v-20.33h22.14v20.33h8.14v-47.55h-8.14ZM540.47,193.19c-2.51-1.33-7.9-2.79-11.98-3.78-2.08-.51-3.92-1.2-5.46-2.06-1.57-.88-2.62-2.39-2.68-3.85-.06-1.72.6-3.17,1.96-4.29,1.55-1.28,3.76-1.61,5.5-1.75.43-.03.87-.05,1.32-.05.26,0,.52,0,.78.02,1.97.09,4.01.51,6.05,1.24,3.12,1.13,6.02,3.72,6.05,3.74l.6.54,5.41-6.28-.58-.52c-2.49-2.2-5.25-3.89-8.2-5-2.93-1.1-6.27-1.66-9.92-1.66h-.31c-3.66.03-7.54,1.02-10.14,2.58-4.47,2.68-7.03,6.94-6.84,11.39.22,5.08,2.92,8.91,8.02,11.4,3.19,1.55,7.59,2.66,10.91,3.5.52.13,1,.25,1.44.37,4.71,1.23,7.51,3.66,7.47,6.48-.03,2.31-1.77,4.16-3.38,4.9-2.06.94-4.33,1.42-6.74,1.42-3.12,0-5.86-.79-7.61-1.45-4.03-1.53-7.21-4.69-7.24-4.72l-.59-.59-5.72,6.23.55.54c2.49,2.44,5.72,4.47,9.61,6.03,3.35,1.35,6.6,1.95,10.56,1.95.25,0,.51,0,.76,0,4.03-.08,7.75-.95,10.78-2.52,3.56-1.85,7.37-6.32,7.32-11.75-.06-6.96-4.85-10.53-7.7-12.03ZM624.25,189.56h-9.5l-5.01,8.36-5.44-5.76c.47-.33.95-.67,1.4-1,9.98-7.88,4.32-23.22-8-21.48-5.08.44-8.55,3.98-9.87,8.21-.82,2.66-.79,5.6.23,8.21.72,1.84,1.83,3.41,3.26,4.83,0,0-.44.33-.79.54-2.56,1.61-4.34,3.41-5.65,5.3-2.69,3.88-3.09,8.26-1.77,12.02,1.3,3.71,4.12,6.94,7.6,8.88,5.63,2.92,14.51,2.69,20.09-6.47l6.28,6.69h11.39l-12.94-13.78,8.71-14.57ZM596.42,177.97c.85-.67,1.75-.98,2.6-1.01.86.03,1.75.33,2.6,1.01,3.83,3.35.3,6.65-2.6,9.02-2.9-2.37-6.43-5.67-2.6-9.02ZM603.16,208.16c-1.82,1.92-3.57,2.88-5.46,2.93-1.78.05-3.48-.59-4.78-1.8-1.3-1.21-2.04-2.85-2.09-4.62-.05-1.59.49-3.14,1.52-4.38,1.13-1.37,2.76-2.52,4.97-3.51l8.06,8.57c-.73,1.05-1.66,2.24-2.21,2.82ZM712.64,218h32.17v-7.75h-24.03v-12.59h22.63v-7.75h-22.63v-11.73h24.03v-7.75h-32.17v47.55ZM702.23,170.47h-10.5l-22.72,23.19v-23.19h-8.25v47.52h8.25v-13.82l8.57-8.63,15.53,22.45h10.25l-19.76-28.56,18.63-18.97Z"/>
  <polygon class="cls-1" points=".21 0 1079.79 0 1047.56 53.85 33.52 53.85 .21 0"/>
  <polygon class="cls-5" points="1079.79 1920 .21 1920 32.44 1866.15 1046.48 1866.15 1079.79 1920"/>
  <polygon class="cls-7" points="1079.79 0 1047.56 53.85 1046.48 1866.15 1079.79 1920 1079.79 0"/>
  <polygon class="cls-7" points=".21 0 33.52 53.85 32.44 1866.15 .21 1920 .21 0"/>
  <rect class="cls-6" x="84.79" y="294.75" width="910" height="1478.75"/>
  <rect class="cls-3" x="135.98" y="370.9" width="807.62" height="1326.46"/>
  <polygon class="cls-1" points="84.79 294.75 994.79 294.75 967.62 347.16 112.87 347.16 84.79 294.75"/>
  <polygon class="cls-5" points="994.79 1773.5 84.79 1773.5 111.95 1721.1 966.71 1721.1 994.79 1773.5"/>
  <polygon class="cls-7" points="994.79 294.75 967.62 347.16 966.71 1721.1 994.79 1773.5 994.79 294.75"/>
  <polygon class="cls-7" points="84.79 294.75 111.95 347.16 112.87 1721.1 84.79 1773.5 84.79 294.75"/>
  <text class="cls-4" transform="translate(854.61 450.76) scale(1.15 1)"><tspan x="0" y="0">6</tspan></text>
</svg>