<svg viewBox="123.481088 112.4352 266.24 287.744" xmlns="http://www.w3.org/2000/svg" id="Layer_1" style="max-height: 500px" width="266.24" height="287.744">
  <defs>
    <style>
      .cls-1 {
        fill: #b5e43f;
      }

      .cls-2 {
        fill: #fcbc04;
      }

      .cls-3 {
        fill: #6bc600;
      }

      .cls-4 {
        fill: #1e9300;
      }

      .cls-5 {
        fill: #fff;
      }

      .cls-6 {
        fill: #e15a1b;
      }

      .cls-7 {
        fill: #68c807;
      }

      .cls-8 {
        fill: #fb8202;
      }

      .cls-9 {
        fill: #fdfdfd;
      }
    </style>
  </defs>
  <rect height="10.18" width="10.18" y="184.74" x="317.08" class="cls-8"/>
  <rect height="10.18" width="10.18" y="184.74" x="327.26" class="cls-8"/>
  <rect height="10.18" width="10.18" y="174.56" x="317.08" class="cls-8"/>
  <rect height="10.18" width="10.18" y="174.56" x="327.26" class="cls-8"/>
  <rect height="10.18" width="10.18" y="184.74" x="337.44" class="cls-8"/>
  <rect height="10.18" width="10.18" y="194.92" x="327.26" class="cls-8"/>
  <rect height="10.18" width="10.18" y="205.1" x="337.44" class="cls-8"/>
  <rect height="10.18" width="10.18" y="205.1" x="347.63" class="cls-6"/>
  <rect height="10.18" width="10.18" y="194.92" x="337.44" class="cls-8"/>
  <rect height="10.18" width="10.18" y="194.92" x="347.63" class="cls-8"/>
  <rect height="10.18" width="10.18" y="215.28" x="347.63" class="cls-8"/>
  <rect height="10.18" width="10.18" y="205.1" x="357.81" class="cls-6"/>
  <rect height="10.18" width="10.18" y="215.28" x="357.81" class="cls-6"/>
  <rect height="10.18" width="10.18" y="225.46" x="357.81" class="cls-6"/>
  <rect height="10.18" width="10.18" y="225.46" x="367.99" class="cls-6"/>
  <rect height="10.18" width="10.18" y="225.46" x="347.63" class="cls-6"/>
  <rect height="10.18" width="10.18" y="235.64" x="357.81" class="cls-6"/>
  <rect height="10.18" width="10.18" y="235.64" x="367.99" class="cls-6"/>
  <rect height="10.18" width="10.18" y="245.82" x="357.81" class="cls-6"/>
  <rect height="10.18" width="10.18" y="245.82" x="347.63" class="cls-6"/>
  <rect height="10.18" width="10.18" y="256" x="357.81" class="cls-6"/>
  <rect height="10.18" width="10.18" y="266.18" x="357.81" class="cls-6"/>
  <rect height="10.18" width="10.18" y="276.36" x="357.81" class="cls-6"/>
  <rect height="10.18" width="10.18" y="286.54" x="357.81" class="cls-6"/>
  <rect height="10.18" width="10.18" y="235.64" x="347.63" class="cls-8"/>
  <rect height="10.18" width="10.18" y="306.9" x="357.81" class="cls-6"/>
  <rect height="10.18" width="10.18" y="317.08" x="357.81" class="cls-6"/>
  <rect height="10.18" width="10.18" y="306.9" x="367.99" class="cls-6"/>
  <rect height="10.18" width="10.18" y="317.08" x="367.99" class="cls-6"/>
  <rect height="10.18" width="10.18" y="327.26" x="347.63" class="cls-6"/>
  <rect height="10.18" width="10.18" y="327.26" x="357.81" class="cls-6"/>
  <rect height="10.18" width="10.18" y="337.44" x="337.44" class="cls-6"/>
  <rect height="10.18" width="10.18" y="347.63" x="337.44" class="cls-6"/>
  <rect height="10.18" width="10.18" y="337.44" x="347.63" class="cls-6"/>
  <rect height="10.18" width="10.18" y="347.63" x="347.63" class="cls-6"/>
  <rect height="10.18" width="10.18" y="357.81" x="327.26" class="cls-6"/>
  <rect height="10.18" width="10.18" y="357.81" x="337.44" class="cls-6"/>
  <rect height="10.18" width="10.18" y="367.99" x="327.26" class="cls-6"/>
  <rect height="10.18" width="10.18" y="357.81" x="317.08" class="cls-6"/>
  <rect height="10.18" width="10.18" y="367.99" x="306.9" class="cls-6"/>
  <rect height="10.18" width="10.18" y="367.99" x="296.72" class="cls-6"/>
  <rect height="10.18" width="10.18" y="378.17" x="286.54" class="cls-6"/>
  <rect height="10.18" width="10.18" y="378.17" x="296.72" class="cls-6"/>
  <rect height="10.18" width="10.18" y="378.17" x="306.9" class="cls-6"/>
  <rect height="10.18" width="10.18" y="367.99" x="317.08" class="cls-6"/>
  <rect height="10.18" width="10.18" y="378.17" x="276.36" class="cls-6"/>
  <rect height="10.18" width="10.18" y="378.17" x="266.18" class="cls-6"/>
  <rect height="10.18" width="10.18" y="378.17" x="256" class="cls-6"/>
  <rect height="10.18" width="10.18" y="245.82" x="367.99" class="cls-6"/>
  <rect height="10.18" width="10.18" y="256" x="367.99" class="cls-6"/>
  <rect height="10.18" width="10.18" y="266.18" x="367.99" class="cls-6"/>
  <rect height="10.18" width="10.18" y="276.36" x="367.99" class="cls-6"/>
  <rect height="10.18" width="10.18" y="286.54" x="367.99" class="cls-6"/>
  <rect height="10.18" width="10.18" y="296.72" x="367.99" class="cls-6"/>
  <rect height="10.18" width="10.18" y="245.82" x="378.17" class="cls-6"/>
  <rect height="10.18" width="10.18" y="256" x="378.17" class="cls-6"/>
  <rect height="10.18" width="10.18" y="266.18" x="378.17" class="cls-6"/>
  <rect height="10.18" width="10.18" y="276.36" x="378.17" class="cls-6"/>
  <rect height="10.18" width="10.18" y="286.54" x="378.17" class="cls-6"/>
  <rect height="10.18" width="10.18" y="296.72" x="378.17" class="cls-6"/>
  <rect transform="translate(379.65 379.65) rotate(-180)" height="10.18" width="10.18" y="184.74" x="184.74" class="cls-8"/>
  <rect transform="translate(359.29 379.65) rotate(-180)" height="10.18" width="10.18" y="184.74" x="174.56" class="cls-8"/>
  <rect transform="translate(359.29 400.01) rotate(-180)" height="10.18" width="10.18" y="194.92" x="174.56" class="cls-8"/>
  <rect transform="translate(338.93 379.65) rotate(-180)" height="10.18" width="10.18" y="184.74" x="164.37" class="cls-8"/>
  <rect transform="translate(338.93 400.01) rotate(-180)" height="10.18" width="10.18" y="194.92" x="164.37" class="cls-8"/>
  <rect transform="translate(318.57 400.01) rotate(-180)" height="10.18" width="10.18" y="194.92" x="154.19" class="cls-8"/>
  <rect transform="translate(338.93 420.37) rotate(-180)" height="10.18" width="10.18" y="205.1" x="164.37" class="cls-8"/>
  <rect transform="translate(318.57 420.37) rotate(-180)" height="10.18" width="10.18" y="205.1" x="154.19" class="cls-8"/>
  <rect transform="translate(318.57 440.74) rotate(-180)" height="10.18" width="10.18" y="215.28" x="154.19" class="cls-8"/>
  <rect transform="translate(298.21 420.37) rotate(-180)" height="10.18" width="10.18" y="205.1" x="144.01" class="cls-8"/>
  <rect transform="translate(298.21 440.74) rotate(-180)" height="10.18" width="10.18" y="215.28" x="144.01" class="cls-8"/>
  <rect transform="translate(298.21 461.1) rotate(-180)" height="10.18" width="10.18" y="225.46" x="144.01" class="cls-8"/>
  <rect transform="translate(298.21 481.46) rotate(-180)" height="10.18" width="10.18" y="235.64" x="144.01" class="cls-8"/>
  <rect transform="translate(277.85 461.1) rotate(-180)" height="10.18" width="10.18" y="225.46" x="133.83" class="cls-8"/>
  <rect transform="translate(277.85 481.46) rotate(-180)" height="10.18" width="10.18" y="235.64" x="133.83" class="cls-8"/>
  <rect transform="translate(298.21 623.99) rotate(-180)" height="10.18" width="10.18" y="306.9" x="144.01" class="cls-8"/>
  <rect transform="translate(298.21 644.35) rotate(-180)" height="10.18" width="10.18" y="317.08" x="144.01" class="cls-8"/>
  <rect transform="translate(277.85 623.99) rotate(-180)" height="10.18" width="10.18" y="306.9" x="133.83" class="cls-8"/>
  <rect transform="translate(277.85 644.35) rotate(-180)" height="10.18" width="10.18" y="317.08" x="133.83" class="cls-8"/>
  <rect transform="translate(318.57 664.71) rotate(-180)" height="10.18" width="10.18" y="327.26" x="154.19" class="cls-8"/>
  <rect transform="translate(298.21 664.71) rotate(-180)" height="10.18" width="10.18" y="327.26" x="144.01" class="cls-8"/>
  <rect transform="translate(338.93 685.07) rotate(-180)" height="10.18" width="10.18" y="337.44" x="164.37" class="cls-8"/>
  <rect transform="translate(338.93 705.43) rotate(-180)" height="10.18" width="10.18" y="347.63" x="164.37" class="cls-8"/>
  <rect transform="translate(318.57 685.07) rotate(-180)" height="10.18" width="10.18" y="337.44" x="154.19" class="cls-8"/>
  <rect transform="translate(318.57 705.43) rotate(-180)" height="10.18" width="10.18" y="347.63" x="154.19" class="cls-8"/>
  <rect transform="translate(359.29 725.79) rotate(-180)" height="10.18" width="10.18" y="357.81" x="174.56" class="cls-8"/>
  <rect transform="translate(338.93 725.79) rotate(-180)" height="10.18" width="10.18" y="357.81" x="164.37" class="cls-8"/>
  <rect transform="translate(379.65 725.79) rotate(-180)" height="10.18" width="10.18" y="357.81" x="184.74" class="cls-8"/>
  <rect transform="translate(400.01 746.15) rotate(-180)" height="10.18" width="10.18" y="367.99" x="194.92" class="cls-6"/>
  <rect transform="translate(379.65 746.15) rotate(-180)" height="10.18" width="10.18" y="367.99" x="184.74" class="cls-8"/>
  <rect transform="translate(359.29 746.15) rotate(-180)" height="10.18" width="10.18" y="367.99" x="174.56" class="cls-8"/>
  <rect transform="translate(420.37 746.15) rotate(-180)" height="10.18" width="10.18" y="367.99" x="205.1" class="cls-6"/>
  <rect transform="translate(400.01 766.52) rotate(-180)" height="10.18" width="10.18" y="378.17" x="194.92" class="cls-6"/>
  <rect transform="translate(420.37 766.52) rotate(-180)" height="10.18" width="10.18" y="378.17" x="205.1" class="cls-6"/>
  <rect transform="translate(440.74 766.52) rotate(-180)" height="10.18" width="10.18" y="378.17" x="215.28" class="cls-6"/>
  <rect transform="translate(461.1 766.52) rotate(-180)" height="10.18" width="10.18" y="378.17" x="225.46" class="cls-6"/>
  <rect transform="translate(481.46 766.52) rotate(-180)" height="10.18" width="10.18" y="378.17" x="235.64" class="cls-6"/>
  <rect transform="translate(501.82 766.52) rotate(-180)" height="10.18" width="10.18" y="378.17" x="245.82" class="cls-6"/>
  <rect height="10.18" width="10.18" y="388.35" x="286.54" class="cls-6"/>
  <rect height="10.18" width="10.18" y="388.35" x="276.36" class="cls-6"/>
  <rect height="10.18" width="10.18" y="388.35" x="266.18" class="cls-6"/>
  <rect height="10.18" width="10.18" y="388.35" x="256" class="cls-6"/>
  <rect transform="translate(440.74 786.88) rotate(-180)" height="10.18" width="10.18" y="388.35" x="215.28" class="cls-6"/>
  <rect transform="translate(461.1 786.88) rotate(-180)" height="10.18" width="10.18" y="388.35" x="225.46" class="cls-6"/>
  <rect transform="translate(481.46 786.88) rotate(-180)" height="10.18" width="10.18" y="388.35" x="235.64" class="cls-6"/>
  <rect transform="translate(501.82 786.88) rotate(-180)" height="10.18" width="10.18" y="388.35" x="245.82" class="cls-6"/>
  <rect transform="translate(277.85 501.82) rotate(-180)" height="10.18" width="10.18" y="245.82" x="133.83" class="cls-8"/>
  <rect transform="translate(257.48 501.82) rotate(-180)" height="10.18" width="10.18" y="245.82" x="123.65" class="cls-8"/>
  <rect transform="translate(257.48 522.18) rotate(-180)" height="10.18" width="10.18" y="256" x="123.65" class="cls-8"/>
  <rect transform="translate(257.48 542.54) rotate(-180)" height="10.18" width="10.18" y="266.18" x="123.65" class="cls-8"/>
  <rect transform="translate(257.48 562.9) rotate(-180)" height="10.18" width="10.18" y="276.36" x="123.65" class="cls-8"/>
  <rect transform="translate(257.48 583.26) rotate(-180)" height="10.18" width="10.18" y="286.54" x="123.65" class="cls-8"/>
  <rect transform="translate(257.48 603.63) rotate(-180)" height="10.18" width="10.18" y="296.72" x="123.65" class="cls-8"/>
  <rect transform="translate(277.85 522.18) rotate(-180)" height="10.18" width="10.18" y="256" x="133.83" class="cls-8"/>
  <rect transform="translate(277.85 542.54) rotate(-180)" height="10.18" width="10.18" y="266.18" x="133.83" class="cls-8"/>
  <rect transform="translate(277.85 562.9) rotate(-180)" height="10.18" width="10.18" y="276.36" x="133.83" class="cls-8"/>
  <rect transform="translate(277.85 583.26) rotate(-180)" height="10.18" width="10.18" y="286.54" x="133.83" class="cls-8"/>
  <rect transform="translate(277.85 603.63) rotate(-180)" height="10.18" width="10.18" y="296.72" x="133.83" class="cls-8"/>
  <rect transform="translate(400.01 359.29) rotate(-180)" height="10.18" width="10.18" y="174.56" x="194.92" class="cls-8"/>
  <rect transform="translate(420.37 359.29) rotate(-180)" height="10.18" width="10.18" y="174.56" x="205.1" class="cls-8"/>
  <rect transform="translate(440.74 359.29) rotate(-180)" height="10.18" width="10.18" y="174.56" x="215.28" class="cls-8"/>
  <rect transform="translate(461.1 359.29) rotate(-180)" height="10.18" width="10.18" y="174.56" x="225.46" class="cls-8"/>
  <rect transform="translate(481.46 359.29) rotate(-180)" height="10.18" width="10.18" y="174.56" x="235.64" class="cls-6"/>
  <rect transform="translate(562.9 359.29) rotate(-180)" height="10.18" width="10.18" y="174.56" x="276.36" class="cls-6"/>
  <rect transform="translate(583.26 359.29) rotate(-180)" height="10.18" width="10.18" y="174.56" x="286.54" class="cls-8"/>
  <rect transform="translate(603.63 359.29) rotate(-180)" height="10.18" width="10.18" y="174.56" x="296.72" class="cls-8"/>
  <rect transform="translate(623.99 359.29) rotate(-180)" height="10.18" width="10.18" y="174.56" x="306.9" class="cls-8"/>
  <rect transform="translate(379.84 359.29) rotate(-180)" height="10.18" width="10.18" y="174.56" x="184.83" class="cls-8"/>
  <rect transform="translate(359.47 359.29) rotate(-180)" height="10.18" width="10.18" y="174.56" x="174.65" class="cls-8"/>
  <rect height="10.18" width="10.18" y="296.72" x="357.81" class="cls-6"/>
  <rect height="10.18" width="10.18" y="256" x="347.63" class="cls-8"/>
  <rect height="10.18" width="10.18" y="266.18" x="347.63" class="cls-8"/>
  <rect height="10.18" width="10.18" y="276.36" x="347.63" class="cls-8"/>
  <rect height="10.18" width="10.18" y="286.54" x="347.63" class="cls-8"/>
  <rect height="10.18" width="10.18" y="306.9" x="347.63" class="cls-6"/>
  <rect height="10.18" width="10.18" y="317.08" x="347.63" class="cls-6"/>
  <rect height="10.18" width="10.18" y="296.72" x="347.63" class="cls-8"/>
  <rect height="10.18" width="10.18" y="215.28" x="337.44" class="cls-8"/>
  <rect height="10.18" width="10.18" y="225.46" x="337.44" class="cls-8"/>
  <rect height="10.18" width="10.18" y="245.82" x="337.44" class="cls-8"/>
  <rect height="10.18" width="10.18" y="235.64" x="337.44" class="cls-8"/>
  <rect height="10.18" width="10.18" y="327.26" x="337.44" class="cls-6"/>
  <rect height="10.18" width="10.18" y="256" x="337.44" class="cls-8"/>
  <rect height="10.18" width="10.18" y="266.18" x="337.44" class="cls-8"/>
  <rect height="10.18" width="10.18" y="276.36" x="337.44" class="cls-8"/>
  <rect height="10.18" width="10.18" y="286.54" x="337.44" class="cls-6"/>
  <rect height="10.18" width="10.18" y="306.9" x="337.44" class="cls-8"/>
  <rect height="10.18" width="10.18" y="317.08" x="337.44" class="cls-6"/>
  <rect height="10.18" width="10.18" y="296.72" x="337.44" class="cls-8"/>
  <rect height="10.18" width="10.18" y="205.1" x="327.26" class="cls-8"/>
  <rect height="10.18" width="10.18" y="337.44" x="327.26" class="cls-6"/>
  <rect height="10.18" width="10.18" y="347.63" x="327.26" class="cls-6"/>
  <rect height="10.18" width="10.18" y="215.28" x="327.26" class="cls-8"/>
  <rect height="10.18" width="10.18" y="225.46" x="327.26" class="cls-8"/>
  <rect height="10.18" width="10.18" y="245.82" x="327.26" class="cls-8"/>
  <rect height="10.18" width="10.18" y="235.64" x="327.26" class="cls-8"/>
  <rect height="10.18" width="10.18" y="327.26" x="327.26" class="cls-6"/>
  <rect height="10.18" width="10.18" y="256" x="327.26" class="cls-8"/>
  <rect height="10.18" width="10.18" y="266.18" x="327.26" class="cls-8"/>
  <rect height="10.18" width="10.18" y="276.36" x="327.26" class="cls-8"/>
  <rect height="10.18" width="10.18" y="286.54" x="327.26" class="cls-8"/>
  <rect height="10.18" width="10.18" y="306.9" x="327.26" class="cls-8"/>
  <rect height="10.18" width="10.18" y="317.08" x="327.26" class="cls-8"/>
  <rect height="10.18" width="10.18" y="296.72" x="327.26" class="cls-8"/>
  <rect height="10.18" width="10.18" y="194.92" x="317.08" class="cls-8"/>
  <rect height="10.18" width="10.18" y="205.1" x="317.08" class="cls-8"/>
  <rect height="10.18" width="10.18" y="337.44" x="317.08" class="cls-6"/>
  <rect height="10.18" width="10.18" y="347.63" x="317.08" class="cls-6"/>
  <rect height="10.18" width="10.18" y="215.28" x="317.08" class="cls-8"/>
  <rect height="10.18" width="10.18" y="225.46" x="317.08" class="cls-8"/>
  <rect height="10.18" width="10.18" y="245.82" x="317.08" class="cls-8"/>
  <rect height="10.18" width="10.18" y="235.64" x="317.08" class="cls-8"/>
  <rect height="10.18" width="10.18" y="327.26" x="317.08" class="cls-8"/>
  <rect height="10.18" width="10.18" y="256" x="317.08" class="cls-8"/>
  <rect height="10.18" width="10.18" y="266.18" x="317.08" class="cls-8"/>
  <rect height="10.18" width="10.18" y="276.36" x="317.08" class="cls-8"/>
  <rect height="10.18" width="10.18" y="286.54" x="317.08" class="cls-8"/>
  <rect height="10.18" width="10.18" y="306.9" x="317.08" class="cls-6"/>
  <rect height="10.18" width="10.18" y="317.08" x="317.08" class="cls-8"/>
  <rect height="10.18" width="10.18" y="296.72" x="317.08" class="cls-8"/>
  <rect height="10.18" width="10.18" y="184.74" x="306.9" class="cls-8"/>
  <rect height="10.18" width="10.18" y="357.81" x="306.9" class="cls-6"/>
  <rect height="10.18" width="10.18" y="194.92" x="306.9" class="cls-8"/>
  <rect height="10.18" width="10.18" y="205.1" x="306.9" class="cls-8"/>
  <rect height="10.18" width="10.18" y="337.44" x="306.9" class="cls-8"/>
  <rect height="10.18" width="10.18" y="347.63" x="306.9" class="cls-6"/>
  <rect height="10.18" width="10.18" y="215.28" x="306.9" class="cls-8"/>
  <rect height="10.18" width="10.18" y="225.46" x="306.9" class="cls-8"/>
  <rect height="10.18" width="10.18" y="245.82" x="306.9" class="cls-8"/>
  <rect height="10.18" width="10.18" y="235.64" x="306.9" class="cls-8"/>
  <rect height="10.18" width="10.18" y="327.26" x="306.9" class="cls-8"/>
  <rect height="10.18" width="10.18" y="256" x="306.9" class="cls-8"/>
  <rect height="10.18" width="10.18" y="266.18" x="306.9" class="cls-8"/>
  <rect height="10.18" width="10.18" y="276.36" x="306.9" class="cls-8"/>
  <rect height="10.18" width="10.18" y="286.54" x="306.9" class="cls-8"/>
  <rect height="10.18" width="10.18" y="306.9" x="306.9" class="cls-8"/>
  <rect height="10.18" width="10.18" y="317.08" x="306.9" class="cls-8"/>
  <rect height="10.18" width="10.18" y="296.72" x="306.9" class="cls-8"/>
  <rect height="10.18" width="10.18" y="184.74" x="296.72" class="cls-8"/>
  <rect height="10.18" width="10.18" y="357.81" x="296.72" class="cls-6"/>
  <rect height="10.18" width="10.18" y="194.92" x="296.72" class="cls-6"/>
  <rect height="10.18" width="10.18" y="205.1" x="296.72" class="cls-8"/>
  <rect height="10.18" width="10.18" y="337.44" x="296.72" class="cls-8"/>
  <rect height="10.18" width="10.18" y="347.63" x="296.72" class="cls-8"/>
  <rect height="10.18" width="10.18" y="215.28" x="296.72" class="cls-8"/>
  <rect height="10.18" width="10.18" y="225.46" x="296.72" class="cls-8"/>
  <rect height="10.18" width="10.18" y="245.82" x="296.72" class="cls-8"/>
  <rect height="10.18" width="10.18" y="235.64" x="296.72" class="cls-8"/>
  <rect height="10.18" width="10.18" y="327.26" x="296.72" class="cls-8"/>
  <rect height="10.18" width="10.18" y="256" x="296.72" class="cls-8"/>
  <rect height="10.18" width="10.18" y="266.18" x="296.72" class="cls-8"/>
  <rect height="10.18" width="10.18" y="276.36" x="296.72" class="cls-8"/>
  <rect height="10.18" width="10.18" y="286.54" x="296.72" class="cls-8"/>
  <rect height="10.18" width="10.18" y="306.9" x="296.72" class="cls-8"/>
  <rect height="10.18" width="10.18" y="317.08" x="296.72" class="cls-8"/>
  <rect height="10.18" width="10.18" y="296.72" x="296.72" class="cls-8"/>
  <rect height="10.18" width="10.18" y="367.99" x="286.54" class="cls-6"/>
  <rect height="10.18" width="10.18" y="184.74" x="286.54" class="cls-6"/>
  <rect height="10.18" width="10.18" y="357.81" x="286.54" class="cls-6"/>
  <rect height="10.18" width="10.18" y="194.92" x="286.54" class="cls-6"/>
  <rect height="10.18" width="10.18" y="205.1" x="286.54" class="cls-8"/>
  <rect height="10.18" width="10.18" y="337.44" x="286.54" class="cls-8"/>
  <rect height="10.18" width="10.18" y="347.63" x="286.54" class="cls-8"/>
  <rect height="10.18" width="10.18" y="215.28" x="286.54" class="cls-8"/>
  <rect height="10.18" width="10.18" y="225.46" x="286.54" class="cls-8"/>
  <rect height="10.18" width="10.18" y="245.82" x="286.54" class="cls-8"/>
  <rect height="10.18" width="10.18" y="235.64" x="286.54" class="cls-8"/>
  <rect height="10.18" width="10.18" y="327.26" x="286.54" class="cls-6"/>
  <rect height="10.18" width="10.18" y="256" x="286.54" class="cls-8"/>
  <rect height="10.18" width="10.18" y="266.18" x="286.54" class="cls-8"/>
  <rect height="10.18" width="10.18" y="276.36" x="286.54" class="cls-8"/>
  <rect height="10.18" width="10.18" y="286.54" x="286.54" class="cls-8"/>
  <rect height="10.18" width="10.18" y="306.9" x="286.54" class="cls-8"/>
  <rect height="10.18" width="10.18" y="317.08" x="286.54" class="cls-8"/>
  <rect height="10.18" width="10.18" y="296.72" x="286.54" class="cls-8"/>
  <rect height="10.18" width="10.18" y="367.99" x="276.36" class="cls-6"/>
  <rect height="10.18" width="10.18" y="184.74" x="276.36" class="cls-6"/>
  <rect height="10.18" width="10.18" y="357.81" x="276.36" class="cls-8"/>
  <rect height="10.18" width="10.18" y="194.92" x="276.36" class="cls-6"/>
  <rect height="10.18" width="10.18" y="205.1" x="276.36" class="cls-6"/>
  <rect height="10.18" width="10.18" y="337.44" x="276.36" class="cls-8"/>
  <rect height="10.18" width="10.18" y="347.63" x="276.36" class="cls-6"/>
  <rect height="10.18" width="10.18" y="215.28" x="276.36" class="cls-8"/>
  <rect height="10.18" width="10.18" y="225.46" x="276.36" class="cls-8"/>
  <rect height="10.18" width="10.18" y="245.82" x="276.36" class="cls-8"/>
  <rect height="10.18" width="10.18" y="235.64" x="276.36" class="cls-8"/>
  <rect height="10.18" width="10.18" y="327.26" x="276.36" class="cls-8"/>
  <rect height="10.18" width="10.18" y="256" x="276.36" class="cls-8"/>
  <rect height="10.18" width="10.18" y="266.18" x="276.36" class="cls-8"/>
  <rect height="10.18" width="10.18" y="276.36" x="276.36" class="cls-8"/>
  <rect height="10.18" width="10.18" y="286.54" x="276.36" class="cls-8"/>
  <rect height="10.18" width="10.18" y="306.9" x="276.36" class="cls-8"/>
  <rect height="10.18" width="10.18" y="317.08" x="276.36" class="cls-8"/>
  <rect height="10.18" width="10.18" y="296.72" x="276.36" class="cls-8"/>
  <rect height="10.18" width="10.18" y="367.99" x="266.18" class="cls-6"/>
  <rect height="10.18" width="10.18" y="184.74" x="266.18" class="cls-6"/>
  <rect height="10.18" width="10.18" y="357.81" x="266.18" class="cls-6"/>
  <rect height="10.18" width="10.18" y="194.92" x="266.18" class="cls-6"/>
  <rect height="10.18" width="10.18" y="205.1" x="266.18" class="cls-6"/>
  <rect height="10.18" width="10.18" y="337.44" x="266.18" class="cls-8"/>
  <rect height="10.18" width="10.18" y="347.63" x="266.18" class="cls-8"/>
  <rect height="10.18" width="10.18" y="215.28" x="266.18" class="cls-8"/>
  <rect height="10.18" width="10.18" y="225.46" x="266.18" class="cls-8"/>
  <rect height="10.18" width="10.18" y="245.82" x="266.18" class="cls-8"/>
  <rect height="10.18" width="10.18" y="235.64" x="266.18" class="cls-8"/>
  <rect height="10.18" width="10.18" y="327.26" x="266.18" class="cls-8"/>
  <rect height="10.18" width="10.18" y="256" x="266.18" class="cls-8"/>
  <rect height="10.18" width="10.18" y="266.18" x="266.18" class="cls-8"/>
  <rect height="10.18" width="10.18" y="276.36" x="266.18" class="cls-8"/>
  <rect height="10.18" width="10.18" y="286.54" x="266.18" class="cls-8"/>
  <rect height="10.18" width="10.18" y="306.9" x="266.18" class="cls-8"/>
  <rect height="10.18" width="10.18" y="317.08" x="266.18" class="cls-8"/>
  <rect height="10.18" width="10.18" y="296.72" x="266.18" class="cls-8"/>
  <rect height="10.18" width="10.18" y="367.99" x="256" class="cls-6"/>
  <rect height="10.18" width="10.18" y="184.74" x="256" class="cls-6"/>
  <rect height="10.18" width="10.18" y="357.81" x="256" class="cls-8"/>
  <rect height="10.18" width="10.18" y="194.92" x="256" class="cls-6"/>
  <rect height="10.18" width="10.18" y="205.1" x="256" class="cls-8"/>
  <rect height="10.18" width="10.18" y="337.44" x="256" class="cls-8"/>
  <rect height="10.18" width="10.18" y="347.63" x="256" class="cls-8"/>
  <rect height="10.18" width="10.18" y="215.28" x="256" class="cls-8"/>
  <rect height="10.18" width="10.18" y="225.46" x="256" class="cls-8"/>
  <rect height="10.18" width="10.18" y="245.82" x="256" class="cls-8"/>
  <rect height="10.18" width="10.18" y="235.64" x="256" class="cls-8"/>
  <rect height="10.18" width="10.18" y="327.26" x="256" class="cls-8"/>
  <rect height="10.18" width="10.18" y="256" x="256" class="cls-8"/>
  <rect height="10.18" width="10.18" y="266.18" x="256" class="cls-8"/>
  <rect height="10.18" width="10.18" y="276.36" x="256" class="cls-8"/>
  <rect height="10.18" width="10.18" y="286.54" x="256" class="cls-8"/>
  <rect height="10.18" width="10.18" y="306.9" x="256" class="cls-8"/>
  <rect height="10.18" width="10.18" y="317.08" x="256" class="cls-8"/>
  <rect height="10.18" width="10.18" y="296.72" x="256" class="cls-8"/>
  <rect height="10.18" width="10.18" y="367.99" x="245.82" class="cls-6"/>
  <rect height="10.18" width="10.18" y="184.74" x="245.82" class="cls-6"/>
  <rect height="10.18" width="10.18" y="357.81" x="245.82" class="cls-6"/>
  <rect height="10.18" width="10.18" y="194.92" x="245.82" class="cls-6"/>
  <rect height="10.18" width="10.18" y="205.1" x="245.82" class="cls-8"/>
  <rect height="10.18" width="10.18" y="337.44" x="245.82" class="cls-8"/>
  <rect height="10.18" width="10.18" y="347.63" x="245.82" class="cls-8"/>
  <rect height="10.18" width="10.18" y="215.28" x="245.82" class="cls-8"/>
  <rect height="10.18" width="10.18" y="225.46" x="245.82" class="cls-8"/>
  <rect height="10.18" width="10.18" y="245.82" x="245.82" class="cls-8"/>
  <rect height="10.18" width="10.18" y="235.64" x="245.82" class="cls-8"/>
  <rect height="10.18" width="10.18" y="327.26" x="245.82" class="cls-8"/>
  <rect height="10.18" width="10.18" y="256" x="245.82" class="cls-8"/>
  <rect height="10.18" width="10.18" y="266.18" x="245.82" class="cls-8"/>
  <rect height="10.18" width="10.18" y="276.36" x="245.82" class="cls-8"/>
  <rect height="10.18" width="10.18" y="286.54" x="245.82" class="cls-8"/>
  <rect height="10.18" width="10.18" y="306.9" x="245.82" class="cls-8"/>
  <rect height="10.18" width="10.18" y="317.08" x="245.82" class="cls-6"/>
  <rect height="10.18" width="10.18" y="296.72" x="245.82" class="cls-8"/>
  <rect height="10.18" width="10.18" y="367.99" x="235.64" class="cls-6"/>
  <rect height="10.18" width="10.18" y="184.74" x="235.64" class="cls-6"/>
  <rect height="10.18" width="10.18" y="357.81" x="235.64" class="cls-6"/>
  <rect height="10.18" width="10.18" y="194.92" x="235.64" class="cls-6"/>
  <rect height="10.18" width="10.18" y="205.1" x="235.64" class="cls-8"/>
  <rect height="10.18" width="10.18" y="337.44" x="235.64" class="cls-8"/>
  <rect height="10.18" width="10.18" y="347.63" x="235.64" class="cls-8"/>
  <rect height="10.18" width="10.18" y="215.28" x="235.64" class="cls-8"/>
  <rect height="10.18" width="10.18" y="225.46" x="235.64" class="cls-8"/>
  <rect height="10.18" width="10.18" y="245.82" x="235.64" class="cls-8"/>
  <rect height="10.18" width="10.18" y="235.64" x="235.64" class="cls-8"/>
  <rect height="10.18" width="10.18" y="327.26" x="235.64" class="cls-8"/>
  <rect height="10.18" width="10.18" y="256" x="235.64" class="cls-8"/>
  <rect height="10.18" width="10.18" y="266.18" x="235.64" class="cls-8"/>
  <rect height="10.18" width="10.18" y="276.36" x="235.64" class="cls-8"/>
  <rect height="10.18" width="10.18" y="286.54" x="235.64" class="cls-8"/>
  <rect height="10.18" width="10.18" y="306.9" x="235.64" class="cls-8"/>
  <rect height="10.18" width="10.18" y="317.08" x="235.64" class="cls-8"/>
  <rect height="10.18" width="10.18" y="296.72" x="235.64" class="cls-8"/>
  <rect height="10.18" width="10.18" y="367.99" x="225.46" class="cls-6"/>
  <rect height="10.18" width="10.18" y="184.74" x="225.46" class="cls-6"/>
  <rect height="10.18" width="10.18" y="357.81" x="225.46" class="cls-8"/>
  <rect height="10.18" width="10.18" y="194.92" x="225.46" class="cls-6"/>
  <rect height="10.18" width="10.18" y="205.1" x="225.46" class="cls-8"/>
  <rect height="10.18" width="10.18" y="337.44" x="225.46" class="cls-8"/>
  <rect height="10.18" width="10.18" y="347.63" x="225.46" class="cls-8"/>
  <rect height="10.18" width="10.18" y="215.28" x="225.46" class="cls-8"/>
  <rect height="10.18" width="10.18" y="225.46" x="225.46" class="cls-8"/>
  <rect height="10.18" width="10.18" y="245.82" x="225.46" class="cls-8"/>
  <rect height="10.18" width="10.18" y="235.64" x="225.46" class="cls-8"/>
  <rect height="10.18" width="10.18" y="327.26" x="225.46" class="cls-8"/>
  <rect height="10.18" width="10.18" y="256" x="225.46" class="cls-8"/>
  <rect height="10.18" width="10.18" y="266.18" x="225.46" class="cls-8"/>
  <rect height="10.18" width="10.18" y="276.36" x="225.46" class="cls-8"/>
  <rect height="10.18" width="10.18" y="286.54" x="225.46" class="cls-8"/>
  <rect height="10.18" width="10.18" y="306.9" x="225.46" class="cls-8"/>
  <rect height="10.18" width="10.18" y="317.08" x="225.46" class="cls-8"/>
  <rect height="10.18" width="10.18" y="296.72" x="225.46" class="cls-8"/>
  <rect height="10.18" width="10.18" y="367.99" x="215.28" class="cls-6"/>
  <rect height="10.18" width="10.18" y="184.74" x="215.28" class="cls-6"/>
  <rect height="10.18" width="10.18" y="357.81" x="215.28" class="cls-6"/>
  <rect height="10.18" width="10.18" y="194.92" x="215.28" class="cls-6"/>
  <rect height="10.18" width="10.18" y="205.1" x="215.28" class="cls-8"/>
  <rect height="10.18" width="10.18" y="337.44" x="215.28" class="cls-8"/>
  <rect height="10.18" width="10.18" y="347.63" x="215.28" class="cls-8"/>
  <rect height="10.18" width="10.18" y="215.28" x="215.28" class="cls-8"/>
  <rect height="10.18" width="10.18" y="225.46" x="215.28" class="cls-8"/>
  <rect height="10.18" width="10.18" y="245.82" x="215.28" class="cls-8"/>
  <rect height="10.18" width="10.18" y="235.64" x="215.28" class="cls-8"/>
  <rect height="10.18" width="10.18" y="327.26" x="215.28" class="cls-8"/>
  <rect height="10.18" width="10.18" y="256" x="215.28" class="cls-2"/>
  <rect height="10.18" width="10.18" y="266.18" x="215.28" class="cls-2"/>
  <rect height="10.18" width="10.18" y="276.36" x="215.28" class="cls-2"/>
  <rect height="10.18" width="10.18" y="286.54" x="215.28" class="cls-8"/>
  <rect height="10.18" width="10.18" y="306.9" x="215.28" class="cls-8"/>
  <rect height="10.18" width="10.18" y="317.08" x="215.28" class="cls-8"/>
  <rect height="10.18" width="10.18" y="296.72" x="215.28" class="cls-8"/>
  <rect height="10.18" width="10.18" y="184.74" x="205.1" class="cls-8"/>
  <rect height="10.18" width="10.18" y="184.74" x="194.92" class="cls-8"/>
  <rect height="10.18" width="10.18" y="357.81" x="205.1" class="cls-6"/>
  <rect height="10.18" width="10.18" y="194.92" x="205.1" class="cls-6"/>
  <rect height="10.18" width="10.18" y="205.1" x="205.1" class="cls-8"/>
  <rect height="10.18" width="10.18" y="337.44" x="205.1" class="cls-8"/>
  <rect height="10.18" width="10.18" y="347.63" x="205.1" class="cls-8"/>
  <rect height="10.18" width="10.18" y="215.28" x="205.1" class="cls-8"/>
  <rect height="10.18" width="10.18" y="225.46" x="205.1" class="cls-8"/>
  <rect height="10.18" width="10.18" y="245.82" x="205.1" class="cls-2"/>
  <rect height="10.18" width="10.18" y="235.64" x="205.1" class="cls-2"/>
  <rect height="10.18" width="10.18" y="327.26" x="205.1" class="cls-6"/>
  <rect height="10.18" width="10.18" y="256" x="205.1" class="cls-2"/>
  <rect height="10.18" width="10.18" y="266.18" x="205.1" class="cls-2"/>
  <rect height="10.18" width="10.18" y="276.36" x="205.1" class="cls-2"/>
  <rect height="10.18" width="10.18" y="286.54" x="205.1" class="cls-2"/>
  <rect height="10.18" width="10.18" y="306.9" x="205.1" class="cls-8"/>
  <rect height="10.18" width="10.18" y="317.08" x="205.1" class="cls-8"/>
  <rect height="10.18" width="10.18" y="296.72" x="205.1" class="cls-8"/>
  <polyline points="205.1 205.1 194.92 205.1 194.92 194.92 205.1 194.92" class="cls-8"/>
  <polyline points="205.1 215.28 194.92 215.28 194.92 205.1 205.1 205.1" class="cls-8"/>
  <polyline points="205.1 347.63 194.92 347.63 194.92 337.44 205.1 337.44" class="cls-8"/>
  <polyline points="205.1 357.81 194.92 357.81 194.92 347.63 205.1 347.63" class="cls-6"/>
  <polyline points="205.1 367.99 194.92 367.99 194.92 357.81 205.1 357.81" class="cls-8"/>
  <polyline points="205.1 225.46 194.92 225.46 194.92 215.28 205.1 215.28" class="cls-8"/>
  <polyline points="205.1 235.64 194.92 235.64 194.92 225.46 205.1 225.46" class="cls-2"/>
  <polyline points="205.1 256 194.92 256 194.92 245.82 205.1 245.82" class="cls-2"/>
  <polyline points="205.1 245.82 194.92 245.82 194.92 235.64 205.1 235.64" class="cls-2"/>
  <polyline points="205.1 337.44 194.92 337.44 194.92 327.26 205.1 327.26" class="cls-8"/>
  <polyline points="205.1 266.18 194.92 266.18 194.92 256 205.1 256" class="cls-2"/>
  <polyline points="205.1 276.36 194.92 276.36 194.92 266.18 205.1 266.18" class="cls-2"/>
  <polyline points="205.1 286.54 194.92 286.54 194.92 276.36 205.1 276.36" class="cls-2"/>
  <polyline points="205.1 296.72 194.92 296.72 194.92 286.54 205.1 286.54" class="cls-2"/>
  <polyline points="205.1 317.08 194.92 317.08 194.92 306.9 205.1 306.9" class="cls-8"/>
  <polyline points="205.1 327.26 194.92 327.26 194.92 317.08 205.1 317.08" class="cls-8"/>
  <polyline points="205.1 306.9 194.92 306.9 194.92 296.72 205.1 296.72" class="cls-2"/>
  <polyline points="194.92 205.1 184.74 205.1 184.74 194.92 194.92 194.92" class="cls-8"/>
  <polyline points="194.92 215.28 184.74 215.28 184.74 205.1 194.92 205.1" class="cls-8"/>
  <polyline points="194.92 347.63 184.74 347.63 184.74 337.44 194.92 337.44" class="cls-8"/>
  <polyline points="194.92 357.81 184.74 357.81 184.74 347.63 194.92 347.63" class="cls-8"/>
  <polyline points="194.92 225.46 184.74 225.46 184.74 215.28 194.92 215.28" class="cls-2"/>
  <polyline points="194.92 235.64 184.74 235.64 184.74 225.46 194.92 225.46" class="cls-2"/>
  <polyline points="194.92 256 184.74 256 184.74 245.82 194.92 245.82" class="cls-2"/>
  <polyline points="194.92 245.82 184.74 245.82 184.74 235.64 194.92 235.64" class="cls-2"/>
  <polyline points="194.92 337.44 184.74 337.44 184.74 327.26 194.92 327.26" class="cls-8"/>
  <polyline points="194.92 266.18 184.74 266.18 184.74 256 194.92 256" class="cls-2"/>
  <polyline points="194.92 276.36 184.74 276.36 184.74 266.18 194.92 266.18" class="cls-2"/>
  <polyline points="194.92 286.54 184.74 286.54 184.74 276.36 194.92 276.36" class="cls-2"/>
  <polyline points="194.92 296.72 184.74 296.72 184.74 286.54 194.92 286.54" class="cls-2"/>
  <polyline points="194.92 317.08 184.74 317.08 184.74 306.9 194.92 306.9" class="cls-2"/>
  <polyline points="194.92 327.26 184.74 327.26 184.74 317.08 194.92 317.08" class="cls-8"/>
  <polyline points="194.92 306.9 184.74 306.9 184.74 296.72 194.92 296.72" class="cls-2"/>
  <polyline points="184.74 215.28 174.56 215.28 174.56 205.1 184.74 205.1" class="cls-8"/>
  <polyline points="184.74 347.63 174.56 347.63 174.56 337.44 184.74 337.44" class="cls-8"/>
  <polyline points="184.74 357.81 174.56 357.81 174.56 347.63 184.74 347.63" class="cls-8"/>
  <polyline points="184.74 225.46 174.56 225.46 174.56 215.28 184.74 215.28" class="cls-2"/>
  <polyline points="184.74 235.64 174.56 235.64 174.56 225.46 184.74 225.46" class="cls-2"/>
  <polyline points="184.74 256 174.56 256 174.56 245.82 184.74 245.82" class="cls-5"/>
  <polyline points="184.74 245.82 174.56 245.82 174.56 235.64 184.74 235.64" class="cls-5"/>
  <polyline points="184.74 337.44 174.56 337.44 174.56 327.26 184.74 327.26" class="cls-8"/>
  <polyline points="184.74 266.18 174.56 266.18 174.56 256 184.74 256" class="cls-2"/>
  <polyline points="184.74 276.36 174.56 276.36 174.56 266.18 184.74 266.18" class="cls-2"/>
  <polyline points="184.74 286.54 174.56 286.54 174.56 276.36 184.74 276.36" class="cls-2"/>
  <polyline points="184.74 296.72 174.56 296.72 174.56 286.54 184.74 286.54" class="cls-2"/>
  <polyline points="184.74 317.08 174.56 317.08 174.56 306.9 184.74 306.9" class="cls-2"/>
  <polyline points="184.74 327.26 174.56 327.26 174.56 317.08 184.74 317.08" class="cls-2"/>
  <polyline points="184.74 306.9 174.56 306.9 174.56 296.72 184.74 296.72" class="cls-2"/>
  <polyline points="174.56 225.46 164.37 225.46 164.37 215.28 174.56 215.28" class="cls-8"/>
  <polyline points="174.56 235.64 164.37 235.64 164.37 225.46 174.56 225.46" class="cls-2"/>
  <polyline points="174.56 256 164.37 256 164.37 245.82 174.56 245.82" class="cls-5"/>
  <polyline points="174.56 245.82 164.37 245.82 164.37 235.64 174.56 235.64" class="cls-2"/>
  <polyline points="174.56 337.44 164.37 337.44 164.37 327.26 174.56 327.26" class="cls-8"/>
  <polyline points="174.56 266.18 164.37 266.18 164.37 256 174.56 256" class="cls-5"/>
  <polyline points="174.56 276.36 164.37 276.36 164.37 266.18 174.56 266.18" class="cls-2"/>
  <polyline points="174.56 286.54 164.37 286.54 164.37 276.36 174.56 276.36" class="cls-2"/>
  <polyline points="174.56 296.72 164.37 296.72 164.37 286.54 174.56 286.54" class="cls-2"/>
  <polyline points="174.56 317.08 164.37 317.08 164.37 306.9 174.56 306.9" class="cls-2"/>
  <polyline points="174.56 327.26 164.37 327.26 164.37 317.08 174.56 317.08" class="cls-2"/>
  <polyline points="174.56 306.9 164.37 306.9 164.37 296.72 174.56 296.72" class="cls-2"/>
  <polyline points="164.37 235.64 154.19 235.64 154.19 225.46 164.37 225.46" class="cls-8"/>
  <polyline points="164.37 256 154.19 256 154.19 245.82 164.37 245.82" class="cls-2"/>
  <polyline points="164.37 245.82 154.19 245.82 154.19 235.64 164.37 235.64" class="cls-2"/>
  <polyline points="164.37 266.18 154.19 266.18 154.19 256 164.37 256" class="cls-5"/>
  <polyline points="164.37 276.36 154.19 276.36 154.19 266.18 164.37 266.18" class="cls-9"/>
  <polyline points="164.37 286.54 154.19 286.54 154.19 276.36 164.37 276.36" class="cls-2"/>
  <polyline points="164.37 296.72 154.19 296.72 154.19 286.54 164.37 286.54" class="cls-2"/>
  <polyline points="164.37 317.08 154.19 317.08 154.19 306.9 164.37 306.9" class="cls-2"/>
  <polyline points="164.37 327.26 154.19 327.26 154.19 317.08 164.37 317.08" class="cls-2"/>
  <polyline points="164.37 306.9 154.19 306.9 154.19 296.72 164.37 296.72" class="cls-2"/>
  <polyline points="154.19 256 144.01 256 144.01 245.82 154.19 245.82" class="cls-8"/>
  <polyline points="154.19 266.18 144.01 266.18 144.01 256 154.19 256" class="cls-2"/>
  <polyline points="154.19 276.36 144.01 276.36 144.01 266.18 154.19 266.18" class="cls-2"/>
  <polyline points="154.19 286.54 144.01 286.54 144.01 276.36 154.19 276.36" class="cls-2"/>
  <polyline points="154.19 296.72 144.01 296.72 144.01 286.54 154.19 286.54" class="cls-2"/>
  <polyline points="154.19 306.9 144.01 306.9 144.01 296.72 154.19 296.72" class="cls-8"/>
  <rect transform="translate(522.18 257.48) rotate(-180)" height="10.18" width="10.18" y="123.65" x="256" class="cls-7"/>
  <rect transform="translate(522.18 277.85) rotate(-180)" height="10.18" width="10.18" y="133.83" x="256" class="cls-7"/>
  <rect transform="translate(522.18 298.21) rotate(-180)" height="10.18" width="10.18" y="144.01" x="256" class="cls-7"/>
  <rect transform="translate(522.18 318.57) rotate(-180)" height="10.18" width="10.18" y="154.19" x="256" class="cls-7"/>
  <g>
    <rect transform="translate(642.54 237.12) rotate(-180)" height="10.18" width="10.18" y="113.47" x="316.18" class="cls-1"/>
    <rect transform="translate(540.74 338.56) rotate(-180)" height="10.18" width="10.18" y="164.19" x="265.28" class="cls-4"/>
    <rect transform="translate(642.54 257.48) rotate(-180)" height="10.18" width="10.18" y="123.65" x="316.18" class="cls-3"/>
    <rect transform="translate(642.54 277.85) rotate(-180)" height="10.18" width="10.18" y="133.83" x="316.18" class="cls-3"/>
    <rect transform="translate(622.18 257.48) rotate(-180)" height="10.18" width="10.18" y="123.65" x="306" class="cls-3"/>
    <rect transform="translate(622.18 277.85) rotate(-180)" height="10.18" width="10.18" y="133.83" x="306" class="cls-3"/>
    <rect transform="translate(622.18 298.21) rotate(-180)" height="10.18" width="10.18" y="144.01" x="306" class="cls-3"/>
    <rect transform="translate(601.82 277.85) rotate(-180)" height="10.18" width="10.18" y="133.83" x="295.82" class="cls-3"/>
    <rect transform="translate(601.82 298.21) rotate(-180)" height="10.18" width="10.18" y="144.01" x="295.82" class="cls-3"/>
    <rect transform="translate(601.82 318.57) rotate(-180)" height="10.18" width="10.18" y="154.19" x="295.82" class="cls-3"/>
    <rect transform="translate(581.46 298.21) rotate(-180)" height="10.18" width="10.18" y="144.01" x="285.64" class="cls-3"/>
    <rect transform="translate(581.46 318.57) rotate(-180)" height="10.18" width="10.18" y="154.19" x="285.64" class="cls-3"/>
    <rect transform="translate(581.46 338.93) rotate(-180)" height="10.18" width="10.18" y="164.37" x="285.64" class="cls-3"/>
    <rect transform="translate(561.1 318.57) rotate(-180)" height="10.18" width="10.18" y="154.19" x="275.46" class="cls-3"/>
    <rect transform="translate(561.1 338.56) rotate(-180)" height="10.18" width="10.18" y="164.19" x="275.46" class="cls-3"/>
    <rect transform="translate(642.54 298.21) rotate(-180)" height="10.18" width="10.18" y="144.01" x="316.18" class="cls-1"/>
    <rect transform="translate(601.82 257.48) rotate(-180)" height="10.18" width="10.18" y="123.65" x="295.82" class="cls-1"/>
    <rect transform="translate(581.46 277.85) rotate(-180)" height="10.18" width="10.18" y="133.83" x="285.64" class="cls-1"/>
    <rect transform="translate(561.1 298.21) rotate(-180)" height="10.18" width="10.18" y="144.01" x="275.46" class="cls-1"/>
    <rect transform="translate(601.82 338.93) rotate(-180)" height="10.18" width="10.18" y="164.37" x="295.82" class="cls-1"/>
    <rect transform="translate(622.18 318.57) rotate(-180)" height="10.18" width="10.18" y="154.19" x="306" class="cls-1"/>
    <rect transform="translate(662.9 298.21) rotate(-180)" height="10.18" width="10.18" y="144.01" x="326.36" class="cls-1"/>
    <rect transform="translate(662.9 277.85) rotate(-180)" height="10.18" width="10.18" y="133.83" x="326.36" class="cls-1"/>
    <rect transform="translate(662.9 257.48) rotate(-180)" height="10.18" width="10.18" y="123.65" x="326.36" class="cls-1"/>
    <rect transform="translate(662.9 237.12) rotate(-180)" height="10.18" width="10.18" y="113.47" x="326.36" class="cls-1"/>
    <rect transform="translate(622.18 237.12) rotate(-180)" height="10.18" width="10.18" y="113.47" x="306" class="cls-1"/>
  </g>
  <rect transform="translate(522.18 338.93) rotate(-180)" height="10.18" width="10.18" y="164.37" x="256" class="cls-7"/>
  <rect transform="translate(522.18 359.29) rotate(-180)" height="10.18" width="10.18" y="174.56" x="256" class="cls-7"/>
  <rect transform="translate(542.54 359.29) rotate(-180)" height="10.18" width="10.18" y="174.56" x="266.18" class="cls-7"/>
  <rect transform="translate(501.82 359.29) rotate(-180)" height="10.18" width="10.18" y="174.56" x="245.82" class="cls-7"/>
</svg>