<svg xmlns="http://www.w3.org/2000/svg" viewBox="120 130 270 250">
  <defs>
    <style>
      .cls-1 { fill: #cd0014; }
      .cls-2 { fill: #fff; }
    </style>
  </defs>
  <rect class="cls-1" x="219.91" y="183.81" width="24.06" height="24.06"/>
  <rect class="cls-2" x="195.84" y="183.81" width="24.06" height="24.06"/>
  <rect class="cls-1" x="268.03" y="183.81" width="24.06" height="24.06"/>
  <rect class="cls-1" x="316.16" y="183.81" width="24.06" height="24.06"/>
  <rect class="cls-1" x="340.22" y="183.81" width="24.06" height="24.06"/>
  <rect class="cls-1" x="292.09" y="183.81" width="24.06" height="24.06"/>
  <rect class="cls-1" x="316.16" y="159.75" width="24.06" height="24.06"/>
  <rect class="cls-1" x="292.09" y="159.75" width="24.06" height="24.06"/>
  <rect class="cls-1" x="195.84" y="159.75" width="24.06" height="24.06"/>
  <rect class="cls-1" x="171.78" y="159.75" width="24.06" height="24.06"/>
  <rect class="cls-1" x="147.72" y="183.81" width="24.06" height="24.06"/>
  <rect class="cls-1" x="147.72" y="207.87" width="24.06" height="24.06"/>
  <rect class="cls-1" x="147.72" y="231.94" width="24.06" height="24.06"/>
  <rect class="cls-1" x="171.78" y="231.94" width="24.06" height="24.06"/>
  <rect class="cls-1" x="195.84" y="231.94" width="24.06" height="24.06"/>
  <rect class="cls-1" x="219.91" y="231.94" width="24.06" height="24.06"/>
  <rect class="cls-1" x="171.78" y="256" width="24.06" height="24.06"/>
  <rect class="cls-1" x="195.84" y="256" width="24.06" height="24.06"/>
  <rect class="cls-1" x="219.91" y="256" width="24.06" height="24.06"/>
  <rect class="cls-1" x="219.91" y="207.87" width="24.06" height="24.06"/>
  <rect class="cls-1" x="195.84" y="207.87" width="24.06" height="24.06"/>
  <rect class="cls-1" x="243.97" y="207.87" width="24.06" height="24.06"/>
  <rect class="cls-1" x="292.09" y="207.87" width="24.06" height="24.06"/>
  <rect class="cls-1" x="316.16" y="207.87" width="24.06" height="24.06"/>
  <rect class="cls-1" x="340.22" y="207.87" width="24.06" height="24.06"/>
  <rect class="cls-1" x="268.03" y="207.87" width="24.06" height="24.06"/>
  <rect class="cls-1" x="243.97" y="231.94" width="24.06" height="24.06"/>
  <rect class="cls-1" x="292.09" y="231.94" width="24.06" height="24.06"/>
  <rect class="cls-1" x="316.16" y="231.94" width="24.06" height="24.06"/>
  <rect class="cls-1" x="340.22" y="231.94" width="24.06" height="24.06"/>
  <rect class="cls-1" x="268.03" y="231.94" width="24.06" height="24.06"/>
  <rect class="cls-1" x="243.97" y="256" width="24.06" height="24.06"/>
  <rect class="cls-1" x="292.09" y="256" width="24.06" height="24.06"/>
  <rect class="cls-1" x="316.16" y="256" width="24.06" height="24.06"/>
  <rect class="cls-1" x="268.03" y="256" width="24.06" height="24.06"/>
  <rect class="cls-1" x="195.84" y="280.06" width="24.06" height="24.06"/>
  <rect class="cls-1" x="219.91" y="280.06" width="24.06" height="24.06"/>
  <rect class="cls-1" x="243.97" y="280.06" width="24.06" height="24.06"/>
  <rect class="cls-1" x="292.09" y="280.06" width="24.06" height="24.06"/>
  <rect class="cls-1" x="268.03" y="280.06" width="24.06" height="24.06"/>
  <rect class="cls-1" x="219.91" y="304.13" width="24.06" height="24.06"/>
  <rect class="cls-1" x="243.97" y="304.13" width="24.06" height="24.06"/>
  <rect class="cls-1" x="268.03" y="304.13" width="24.06" height="24.06"/>
  <rect class="cls-1" x="243.97" y="328.19" width="24.06" height="24.06"/>
  <g>
    <rect class="cls-1" x="243.97" y="183.81" width="24.06" height="24.06"/>
    <rect class="cls-1" x="219.91" y="159.75" width="24.06" height="24.06"/>
    <rect class="cls-1" x="195.84" y="135.68" width="24.06" height="24.06"/>
    <rect class="cls-1" x="171.78" y="135.68" width="24.06" height="24.06"/>
    <rect class="cls-1" x="147.72" y="159.75" width="24.06" height="24.06"/>
    <rect class="cls-1" x="123.65" y="183.81" width="24.06" height="24.06"/>
    <rect class="cls-1" x="123.65" y="207.87" width="24.06" height="24.06"/>
    <rect class="cls-1" x="123.65" y="231.94" width="24.06" height="24.06"/>
    <rect class="cls-1" x="147.72" y="256" width="24.06" height="24.06"/>
    <rect class="cls-1" x="171.78" y="280.06" width="24.06" height="24.06"/>
    <rect class="cls-1" x="195.84" y="304.13" width="24.06" height="24.06"/>
    <rect class="cls-1" x="219.91" y="328.19" width="24.06" height="24.06"/>
    <rect class="cls-1" x="268.03" y="159.75" width="24.06" height="24.06" transform="translate(560.13 343.56) rotate(-180)"/>
    <rect class="cls-1" x="292.09" y="135.68" width="24.06" height="24.06" transform="translate(608.25 295.43) rotate(-180)"/>
    <rect class="cls-1" x="316.16" y="135.68" width="24.06" height="24.06" transform="translate(656.38 295.43) rotate(-180)"/>
    <rect class="cls-1" x="340.22" y="159.75" width="24.06" height="24.06" transform="translate(704.51 343.56) rotate(-180)"/>
    <rect class="cls-1" x="364.28" y="183.81" width="24.06" height="24.06" transform="translate(752.63 391.68) rotate(-180)"/>
    <rect class="cls-1" x="364.28" y="207.87" width="24.06" height="24.06" transform="translate(752.63 439.81) rotate(-180)"/>
    <rect class="cls-1" x="364.28" y="231.94" width="24.06" height="24.06" transform="translate(752.63 487.94) rotate(-180)"/>
    <rect class="cls-1" x="340.22" y="256" width="24.06" height="24.06" transform="translate(704.51 536.06) rotate(-180)"/>
    <rect class="cls-1" x="316.16" y="280.06" width="24.06" height="24.06" transform="translate(656.38 584.19) rotate(-180)"/>
    <rect class="cls-1" x="292.09" y="304.13" width="24.06" height="24.06" transform="translate(608.25 632.32) rotate(-180)"/>
    <rect class="cls-1" x="268.03" y="328.19" width="24.06" height="24.06" transform="translate(560.13 680.44) rotate(-180)"/>
    <rect class="cls-1" x="243.97" y="352.25" width="24.06" height="24.06"/>
  </g>
  <rect class="cls-2" x="171.78" y="183.81" width="24.06" height="24.06"/>
  <rect class="cls-2" x="171.78" y="207.87" width="24.06" height="24.06"/>
</svg>