<svg viewBox="123.481088 122.4704 266.24 267.264" xmlns="http://www.w3.org/2000/svg" id="Layer_1" style="max-height: 500px" width="266.24" height="267.264">
  <defs>
    <style>
      .cls-1 {
        fill: #e68100;
      }

      .cls-2 {
        fill: #fcf000;
      }

      .cls-3 {
        fill: #ffad00;
      }

      .cls-4 {
        fill: #ffd900;
      }

      .cls-5 {
        fill: #ffa700;
      }

      .cls-6 {
        fill: #fff;
      }

      .cls-7 {
        fill: #ffda00;
      }
    </style>
  </defs>
  <g>
    <rect transform="translate(296.93 429.28) rotate(-180)" height="16.54" width="16.54" y="206.37" x="140.2" class="cls-2"/>
    <rect transform="translate(296.93 462.37) rotate(-180)" height="16.54" width="16.54" y="222.91" x="140.2" class="cls-2"/>
  </g>
  <g>
    <rect transform="translate(296.93 495.46) rotate(-180)" height="16.54" width="16.54" y="239.46" x="140.2" class="cls-2"/>
    <rect transform="translate(296.93 528.54) rotate(-180)" height="16.54" width="16.54" y="256" x="140.2" class="cls-2"/>
  </g>
  <g>
    <rect transform="translate(296.93 561.63) rotate(-180)" height="16.54" width="16.54" y="272.54" x="140.2" class="cls-2"/>
    <rect transform="translate(296.93 594.72) rotate(-180)" height="16.54" width="16.54" y="289.09" x="140.2" class="cls-2"/>
  </g>
  <g>
    <rect transform="translate(330.02 429.28) rotate(-180)" height="16.54" width="16.54" y="206.37" x="156.74" class="cls-4"/>
    <rect transform="translate(330.02 462.37) rotate(-180)" height="16.54" width="16.54" y="222.91" x="156.74" class="cls-4"/>
  </g>
  <g>
    <rect transform="translate(330.02 495.46) rotate(-180)" height="16.54" width="16.54" y="239.46" x="156.74" class="cls-4"/>
    <rect transform="translate(330.02 528.54) rotate(-180)" height="16.54" width="16.54" y="256" x="156.74" class="cls-4"/>
  </g>
  <g>
    <rect transform="translate(330.02 561.63) rotate(-180)" height="16.54" width="16.54" y="272.54" x="156.74" class="cls-4"/>
    <rect transform="translate(330.02 594.72) rotate(-180)" height="16.54" width="16.54" y="289.09" x="156.74" class="cls-4"/>
  </g>
  <g>
    <rect transform="translate(693.98 429.28) rotate(-180)" height="16.54" width="16.54" y="206.37" x="338.72" class="cls-7"/>
    <rect transform="translate(693.98 462.37) rotate(-180)" height="16.54" width="16.54" y="222.91" x="338.72" class="cls-7"/>
  </g>
  <g>
    <rect transform="translate(693.98 495.46) rotate(-180)" height="16.54" width="16.54" y="239.46" x="338.72" class="cls-7"/>
    <rect transform="translate(693.98 528.54) rotate(-180)" height="16.54" width="16.54" y="256" x="338.72" class="cls-7"/>
  </g>
  <g>
    <rect transform="translate(693.98 561.63) rotate(-180)" height="16.54" width="16.54" y="272.54" x="338.72" class="cls-7"/>
    <rect transform="translate(693.98 594.72) rotate(-180)" height="16.54" width="16.54" y="289.09" x="338.72" class="cls-7"/>
  </g>
  <g>
    <rect transform="translate(660.89 495.46) rotate(-180)" height="16.54" width="16.54" y="239.46" x="322.17" class="cls-7"/>
    <rect transform="translate(660.89 528.54) rotate(-180)" height="16.54" width="16.54" y="256" x="322.17" class="cls-7"/>
  </g>
  <g>
    <rect transform="translate(660.89 561.63) rotate(-180)" height="16.54" width="16.54" y="272.54" x="322.17" class="cls-7"/>
    <rect transform="translate(660.89 594.72) rotate(-180)" height="16.54" width="16.54" y="289.09" x="322.17" class="cls-7"/>
  </g>
  <g>
    <rect transform="translate(727.07 429.28) rotate(-180)" height="16.54" width="16.54" y="206.37" x="355.26" class="cls-3"/>
    <rect transform="translate(727.07 462.37) rotate(-180)" height="16.54" width="16.54" y="222.91" x="355.26" class="cls-3"/>
  </g>
  <g>
    <rect transform="translate(727.07 495.46) rotate(-180)" height="16.54" width="16.54" y="239.46" x="355.26" class="cls-3"/>
    <rect transform="translate(727.07 528.54) rotate(-180)" height="16.54" width="16.54" y="256" x="355.26" class="cls-3"/>
  </g>
  <g>
    <rect transform="translate(727.07 561.63) rotate(-180)" height="16.54" width="16.54" y="272.54" x="355.26" class="cls-3"/>
    <rect transform="translate(727.07 594.72) rotate(-180)" height="16.54" width="16.54" y="289.09" x="355.26" class="cls-3"/>
  </g>
  <g>
    <rect transform="translate(627.8 330.02) rotate(-180)" height="16.54" width="16.54" y="156.74" x="305.63" class="cls-5"/>
    <rect transform="translate(660.89 330.02) rotate(-180)" height="16.54" width="16.54" y="156.74" x="322.17" class="cls-5"/>
  </g>
  <g>
    <rect transform="translate(363.11 330.02) rotate(-180)" height="16.54" width="16.54" y="156.74" x="173.28" class="cls-2"/>
    <rect transform="translate(396.2 330.02) rotate(-180)" height="16.54" width="16.54" y="156.74" x="189.83" class="cls-2"/>
  </g>
  <g>
    <rect transform="translate(363.11 693.98) rotate(-180)" height="16.54" width="16.54" y="338.72" x="173.28" class="cls-2"/>
    <rect transform="translate(396.2 693.98) rotate(-180)" height="16.54" width="16.54" y="338.72" x="189.83" class="cls-2"/>
  </g>
  <rect transform="translate(363.11 363.11) rotate(-180)" height="16.54" width="16.54" y="173.28" x="173.28" class="cls-4"/>
  <rect transform="translate(363.11 396.2) rotate(-180)" height="16.54" width="16.54" y="189.83" x="173.28" class="cls-4"/>
  <rect transform="translate(396.2 396.2) rotate(-180)" height="16.54" width="16.54" y="189.83" x="189.83" class="cls-6"/>
  <rect transform="translate(396.2 429.28) rotate(-180)" height="16.54" width="16.54" y="206.37" x="189.83" class="cls-6"/>
  <rect transform="translate(330.02 363.11) rotate(-180)" height="16.54" width="16.54" y="173.28" x="156.74" class="cls-2"/>
  <rect transform="translate(330.02 396.2) rotate(-180)" height="16.54" width="16.54" y="189.83" x="156.74" class="cls-2"/>
  <g>
    <rect transform="translate(693.98 363.11) rotate(-180)" height="16.54" width="16.54" y="173.28" x="338.72" class="cls-5"/>
    <rect transform="translate(693.98 396.2) rotate(-180)" height="16.54" width="16.54" y="189.83" x="338.72" class="cls-5"/>
  </g>
  <rect transform="translate(363.11 528.54) rotate(-180)" height="16.54" width="16.54" y="256" x="173.28" class="cls-2"/>
  <rect transform="translate(363.11 495.46) rotate(-180)" height="16.54" width="16.54" y="239.46" x="173.28" class="cls-2"/>
  <rect transform="translate(363.11 561.63) rotate(-180)" height="16.54" width="16.54" y="272.54" x="173.28" class="cls-2"/>
  <rect transform="translate(396.2 528.54) rotate(-180)" height="16.54" width="16.54" y="256" x="189.83" class="cls-1"/>
  <rect transform="translate(396.2 495.46) rotate(-180)" height="16.54" width="16.54" y="239.46" x="189.83" class="cls-1"/>
  <rect transform="translate(396.2 462.37) rotate(-180)" height="16.54" width="16.54" y="222.91" x="189.83" class="cls-1"/>
  <rect transform="translate(429.28 429.28) rotate(-180)" height="16.54" width="16.54" y="206.37" x="206.37" class="cls-1"/>
  <rect transform="translate(462.37 396.2) rotate(-180)" height="16.54" width="16.54" y="189.83" x="222.91" class="cls-1"/>
  <rect transform="translate(495.46 396.2) rotate(-180)" height="16.54" width="16.54" y="189.83" x="239.46" class="cls-1"/>
  <rect transform="translate(528.54 396.2) rotate(-180)" height="16.54" width="16.54" y="189.83" x="256" class="cls-1"/>
  <rect transform="translate(561.63 429.28) rotate(-180)" height="16.54" width="16.54" y="206.37" x="272.54" class="cls-4"/>
  <rect transform="translate(594.72 462.37) rotate(-180)" height="16.54" width="16.54" y="222.91" x="289.09" class="cls-4"/>
  <g>
    <rect transform="translate(627.8 495.16) rotate(-180)" height="16.54" width="16.54" y="239.31" x="305.63" class="cls-5"/>
    <rect transform="translate(627.8 528.25) rotate(-180)" height="16.54" width="16.54" y="255.85" x="305.63" class="cls-5"/>
    <rect transform="translate(627.8 561.33) rotate(-180)" height="16.54" width="16.54" y="272.39" x="305.63" class="cls-5"/>
  </g>
  <rect transform="translate(594.72 594.42) rotate(-180)" height="16.54" width="16.54" y="288.94" x="289.09" class="cls-5"/>
  <rect transform="translate(561.63 627.51) rotate(-180)" height="16.54" width="16.54" y="305.48" x="272.54" class="cls-5"/>
  <rect transform="translate(528.54 627.51) rotate(-180)" height="16.54" width="16.54" y="305.48" x="256" class="cls-1"/>
  <rect transform="translate(495.46 627.51) rotate(-180)" height="16.54" width="16.54" y="305.48" x="239.46" class="cls-1"/>
  <rect transform="translate(462.37 627.51) rotate(-180)" height="16.54" width="16.54" y="305.48" x="222.91" class="cls-1"/>
  <rect transform="translate(429.28 594.72) rotate(-180)" height="16.54" width="16.54" y="289.09" x="206.37" class="cls-1"/>
  <rect transform="translate(561.63 396.2) rotate(-180)" height="16.54" width="16.54" y="189.83" x="272.54" class="cls-5"/>
  <rect transform="translate(594.72 396.2) rotate(-180)" height="16.54" width="16.54" y="189.83" x="289.09" class="cls-4"/>
  <rect transform="translate(627.8 396.2) rotate(-180)" height="16.54" width="16.54" y="189.83" x="305.63" class="cls-4"/>
  <rect transform="translate(660.89 396.2) rotate(-180)" height="16.54" width="16.54" y="189.83" x="322.17" class="cls-4"/>
  <rect transform="translate(594.72 429.28) rotate(-180)" height="16.54" width="16.54" y="206.37" x="289.09" class="cls-5"/>
  <rect transform="translate(627.8 429.28) rotate(-180)" height="16.54" width="16.54" y="206.37" x="305.63" class="cls-4"/>
  <rect transform="translate(660.89 429.28) rotate(-180)" height="16.54" width="16.54" y="206.37" x="322.17" class="cls-4"/>
  <rect transform="translate(627.8 462.07) rotate(-180)" height="16.54" width="16.54" y="222.76" x="305.63" class="cls-5"/>
  <rect transform="translate(660.89 462.37) rotate(-180)" height="16.54" width="16.54" y="222.91" x="322.17" class="cls-4"/>
  <rect transform="translate(396.2 561.63) rotate(-180)" height="16.54" width="16.54" y="272.54" x="189.83" class="cls-1"/>
  <g>
    <rect transform="translate(330.02 627.8) rotate(-180)" height="16.54" width="16.54" y="305.63" x="156.74" class="cls-2"/>
    <rect transform="translate(330.02 660.89) rotate(-180)" height="16.54" width="16.54" y="322.17" x="156.74" class="cls-2"/>
  </g>
  <rect transform="translate(396.2 363.11) rotate(-180)" height="16.54" width="16.54" y="173.28" x="189.83" class="cls-4"/>
  <rect transform="translate(429.28 363.11) rotate(-180)" height="16.54" width="16.54" y="173.28" x="206.37" class="cls-6"/>
  <rect transform="translate(462.37 363.11) rotate(-180)" height="16.54" width="16.54" y="173.28" x="222.91" class="cls-6"/>
  <g>
    <g>
      <rect transform="translate(429.28 296.93) rotate(-180)" height="16.54" width="16.54" y="140.2" x="206.37" class="cls-2"/>
      <rect transform="translate(462.37 296.93) rotate(-180)" height="16.54" width="16.54" y="140.2" x="222.91" class="cls-2"/>
    </g>
    <g>
      <rect transform="translate(495.46 296.93) rotate(-180)" height="16.54" width="16.54" y="140.2" x="239.46" class="cls-2"/>
      <rect transform="translate(528.54 296.93) rotate(-180)" height="16.54" width="16.54" y="140.2" x="256" class="cls-2"/>
    </g>
    <g>
      <rect transform="translate(561.63 296.93) rotate(-180)" height="16.54" width="16.54" y="140.2" x="272.54" class="cls-2"/>
      <rect transform="translate(594.72 296.93) rotate(-180)" height="16.54" width="16.54" y="140.2" x="289.09" class="cls-2"/>
    </g>
  </g>
  <g>
    <g>
      <rect transform="translate(429.28 727.07) rotate(-180)" height="16.54" width="16.54" y="355.26" x="206.37" class="cls-3"/>
      <rect transform="translate(462.37 727.07) rotate(-180)" height="16.54" width="16.54" y="355.26" x="222.91" class="cls-3"/>
    </g>
    <g>
      <rect transform="translate(495.46 727.07) rotate(-180)" height="16.54" width="16.54" y="355.26" x="239.46" class="cls-3"/>
      <rect transform="translate(528.54 727.07) rotate(-180)" height="16.54" width="16.54" y="355.26" x="256" class="cls-3"/>
    </g>
    <g>
      <rect transform="translate(561.63 727.07) rotate(-180)" height="16.54" width="16.54" y="355.26" x="272.54" class="cls-3"/>
      <rect transform="translate(594.72 727.07) rotate(-180)" height="16.54" width="16.54" y="355.26" x="289.09" class="cls-3"/>
    </g>
  </g>
  <g>
    <g>
      <rect transform="translate(429.28 330.02) rotate(-180)" height="16.54" width="16.54" y="156.74" x="206.37" class="cls-4"/>
      <rect transform="translate(462.37 330.02) rotate(-180)" height="16.54" width="16.54" y="156.74" x="222.91" class="cls-4"/>
    </g>
    <g>
      <rect transform="translate(495.46 330.02) rotate(-180)" height="16.54" width="16.54" y="156.74" x="239.46" class="cls-4"/>
      <rect transform="translate(528.54 330.02) rotate(-180)" height="16.54" width="16.54" y="156.74" x="256" class="cls-4"/>
    </g>
    <g>
      <rect transform="translate(561.63 330.02) rotate(-180)" height="16.54" width="16.54" y="156.74" x="272.54" class="cls-4"/>
      <rect transform="translate(594.72 330.02) rotate(-180)" height="16.54" width="16.54" y="156.74" x="289.09" class="cls-4"/>
    </g>
  </g>
  <g>
    <g>
      <rect transform="translate(429.28 693.98) rotate(-180)" height="16.54" width="16.54" y="338.72" x="206.37" class="cls-4"/>
      <rect transform="translate(462.37 693.98) rotate(-180)" height="16.54" width="16.54" y="338.72" x="222.91" class="cls-4"/>
    </g>
    <g>
      <rect transform="translate(495.46 693.98) rotate(-180)" height="16.54" width="16.54" y="338.72" x="239.46" class="cls-4"/>
      <rect transform="translate(528.54 693.98) rotate(-180)" height="16.54" width="16.54" y="338.72" x="256" class="cls-4"/>
    </g>
    <g>
      <rect transform="translate(561.63 693.98) rotate(-180)" height="16.54" width="16.54" y="338.72" x="272.54" class="cls-4"/>
      <rect transform="translate(594.72 693.98) rotate(-180)" height="16.54" width="16.54" y="338.72" x="289.09" class="cls-4"/>
    </g>
  </g>
  <rect transform="translate(363.11 660.89) rotate(-180)" height="16.54" width="16.54" y="322.17" x="173.28" class="cls-4"/>
  <rect transform="translate(363.11 627.8) rotate(-180)" height="16.54" width="16.54" y="305.63" x="173.28" class="cls-4"/>
  <rect transform="translate(396.2 627.8) rotate(-180)" height="16.54" width="16.54" y="305.63" x="189.83" class="cls-4"/>
  <rect transform="translate(363.11 594.72) rotate(-180)" height="16.54" width="16.54" y="289.09" x="173.28" class="cls-4"/>
  <rect transform="translate(396.2 660.89) rotate(-180)" height="16.54" width="16.54" y="322.17" x="189.83" class="cls-4"/>
  <rect transform="translate(660.89 627.8) rotate(-180)" height="16.54" width="16.54" y="305.63" x="322.17" class="cls-4"/>
  <rect transform="translate(693.98 627.8) rotate(-180)" height="16.54" width="16.54" y="305.63" x="338.72" class="cls-4"/>
  <rect transform="translate(429.28 660.89) rotate(-180)" height="16.54" width="16.54" y="322.17" x="206.37" class="cls-4"/>
  <rect transform="translate(462.37 660.89) rotate(-180)" height="16.54" width="16.54" y="322.17" x="222.91" class="cls-4"/>
  <rect transform="translate(495.46 660.89) rotate(-180)" height="16.54" width="16.54" y="322.17" x="239.46" class="cls-4"/>
  <rect transform="translate(528.54 660.89) rotate(-180)" height="16.54" width="16.54" y="322.17" x="256" class="cls-4"/>
  <rect transform="translate(561.63 660.89) rotate(-180)" height="16.54" width="16.54" y="322.17" x="272.54" class="cls-4"/>
  <rect transform="translate(594.72 660.89) rotate(-180)" height="16.54" width="16.54" y="322.17" x="289.09" class="cls-4"/>
  <rect transform="translate(627.8 660.89) rotate(-180)" height="16.54" width="16.54" y="322.17" x="305.63" class="cls-4"/>
  <rect transform="translate(594.72 627.51) rotate(-180)" height="16.54" width="16.54" y="305.48" x="289.09" class="cls-4"/>
  <rect transform="translate(627.8 627.51) rotate(-180)" height="16.54" width="16.54" y="305.48" x="305.63" class="cls-4"/>
  <rect transform="translate(627.8 594.42) rotate(-180)" height="16.54" width="16.54" y="288.94" x="305.63" class="cls-4"/>
  <rect transform="translate(660.89 660.89) rotate(-180)" height="16.54" width="16.54" y="322.17" x="322.17" class="cls-4"/>
  <rect transform="translate(627.8 693.98) rotate(-180)" height="16.54" width="16.54" y="338.72" x="305.63" class="cls-3"/>
  <rect transform="translate(660.89 693.98) rotate(-180)" height="16.54" width="16.54" y="338.72" x="322.17" class="cls-3"/>
  <rect transform="translate(693.98 660.89) rotate(-180)" height="16.54" width="16.54" y="322.17" x="338.72" class="cls-4"/>
  <rect transform="translate(396.2 594.72) rotate(-180)" height="16.54" width="16.54" y="289.09" x="189.83" class="cls-2"/>
  <rect transform="translate(429.28 627.8) rotate(-180)" height="16.54" width="16.54" y="305.63" x="206.37" class="cls-2"/>
  <g>
    <rect transform="translate(627.8 363.11) rotate(-180)" height="16.54" width="16.54" y="173.28" x="305.63" class="cls-4"/>
    <rect transform="translate(660.89 363.11) rotate(-180)" height="16.54" width="16.54" y="173.28" x="322.17" class="cls-4"/>
  </g>
  <g>
    <rect transform="translate(561.63 363.11) rotate(-180)" height="16.54" width="16.54" y="173.28" x="272.54" class="cls-4"/>
    <rect transform="translate(594.72 363.11) rotate(-180)" height="16.54" width="16.54" y="173.28" x="289.09" class="cls-4"/>
  </g>
  <g>
    <rect transform="translate(495.46 363.11) rotate(-180)" height="16.54" width="16.54" y="173.28" x="239.46" class="cls-4"/>
    <rect transform="translate(528.54 363.11) rotate(-180)" height="16.54" width="16.54" y="173.28" x="256" class="cls-4"/>
  </g>
  <rect transform="translate(462.37 594.72) rotate(-180)" height="16.54" width="16.54" y="289.09" x="222.91" class="cls-4"/>
  <rect transform="translate(495.46 594.72) rotate(-180)" height="16.54" width="16.54" y="289.09" x="239.46" class="cls-4"/>
  <rect transform="translate(429.28 561.63) rotate(-180)" height="16.54" width="16.54" y="272.54" x="206.37" class="cls-4"/>
  <rect transform="translate(462.37 561.63) rotate(-180)" height="16.54" width="16.54" y="272.54" x="222.91" class="cls-4"/>
  <rect transform="translate(495.46 561.63) rotate(-180)" height="16.54" width="16.54" y="272.54" x="239.46" class="cls-4"/>
  <rect transform="translate(429.28 528.54) rotate(-180)" height="16.54" width="16.54" y="256" x="206.37" class="cls-4"/>
  <rect transform="translate(462.37 528.54) rotate(-180)" height="16.54" width="16.54" y="256" x="222.91" class="cls-4"/>
  <rect transform="translate(495.46 528.54) rotate(-180)" height="16.54" width="16.54" y="256" x="239.46" class="cls-4"/>
  <rect transform="translate(429.28 495.46) rotate(-180)" height="16.54" width="16.54" y="239.46" x="206.37" class="cls-4"/>
  <rect transform="translate(462.37 495.46) rotate(-180)" height="16.54" width="16.54" y="239.46" x="222.91" class="cls-4"/>
  <rect transform="translate(495.46 495.46) rotate(-180)" height="16.54" width="16.54" y="239.46" x="239.46" class="cls-4"/>
  <rect transform="translate(429.28 462.37) rotate(-180)" height="16.54" width="16.54" y="222.91" x="206.37" class="cls-4"/>
  <rect transform="translate(462.37 462.37) rotate(-180)" height="16.54" width="16.54" y="222.91" x="222.91" class="cls-4"/>
  <rect transform="translate(495.46 462.37) rotate(-180)" height="16.54" width="16.54" y="222.91" x="239.46" class="cls-4"/>
  <rect transform="translate(528.54 594.72) rotate(-180)" height="16.54" width="16.54" y="289.09" x="256" class="cls-4"/>
  <rect transform="translate(528.54 561.63) rotate(-180)" height="16.54" width="16.54" y="272.54" x="256" class="cls-4"/>
  <rect transform="translate(528.54 528.54) rotate(-180)" height="16.54" width="16.54" y="256" x="256" class="cls-4"/>
  <rect transform="translate(528.54 495.46) rotate(-180)" height="16.54" width="16.54" y="239.46" x="256" class="cls-4"/>
  <rect transform="translate(528.54 462.37) rotate(-180)" height="16.54" width="16.54" y="222.91" x="256" class="cls-4"/>
  <rect transform="translate(561.63 561.63) rotate(-180)" height="16.54" width="16.54" y="272.54" x="272.54" class="cls-4"/>
  <rect transform="translate(561.63 528.54) rotate(-180)" height="16.54" width="16.54" y="256" x="272.54" class="cls-4"/>
  <rect transform="translate(561.63 495.46) rotate(-180)" height="16.54" width="16.54" y="239.46" x="272.54" class="cls-4"/>
  <rect transform="translate(594.72 528.54) rotate(-180)" height="16.54" width="16.54" y="256" x="289.09" class="cls-4"/>
  <rect transform="translate(594.72 495.46) rotate(-180)" height="16.54" width="16.54" y="239.46" x="289.09" class="cls-4"/>
  <rect transform="translate(561.63 462.37) rotate(-180)" height="16.54" width="16.54" y="222.91" x="272.54" class="cls-4"/>
  <rect transform="translate(462.37 429.28) rotate(-180)" height="16.54" width="16.54" y="206.37" x="222.91" class="cls-4"/>
  <rect transform="translate(495.46 429.28) rotate(-180)" height="16.54" width="16.54" y="206.37" x="239.46" class="cls-4"/>
  <rect transform="translate(528.54 429.28) rotate(-180)" height="16.54" width="16.54" y="206.37" x="256" class="cls-4"/>
  <rect transform="translate(330.02 330.02) rotate(-180)" height="16.54" width="16.54" y="156.74" x="156.74" class="cls-2"/>
  <rect transform="translate(330.02 693.98) rotate(-180)" height="16.54" width="16.54" y="338.72" x="156.74" class="cls-2"/>
  <rect transform="translate(296.93 363.11) rotate(-180)" height="16.54" width="16.54" y="173.28" x="140.2" class="cls-2"/>
  <rect transform="translate(296.93 396.2) rotate(-180)" height="16.54" width="16.54" y="189.83" x="140.2" class="cls-2"/>
  <rect transform="translate(296.93 627.8) rotate(-180)" height="16.54" width="16.54" y="305.63" x="140.2" class="cls-2"/>
  <rect transform="translate(296.93 660.89) rotate(-180)" height="16.54" width="16.54" y="322.17" x="140.2" class="cls-2"/>
  <rect transform="translate(263.85 429.28) rotate(-180)" height="16.54" width="16.54" y="206.37" x="123.65" class="cls-2"/>
  <rect transform="translate(263.85 462.37) rotate(-180)" height="16.54" width="16.54" y="222.91" x="123.65" class="cls-2"/>
  <rect transform="translate(263.85 495.46) rotate(-180)" height="16.54" width="16.54" y="239.46" x="123.65" class="cls-2"/>
  <rect transform="translate(263.85 528.54) rotate(-180)" height="16.54" width="16.54" y="256" x="123.65" class="cls-2"/>
  <rect transform="translate(263.85 561.63) rotate(-180)" height="16.54" width="16.54" y="272.54" x="123.65" class="cls-2"/>
  <rect transform="translate(263.85 594.72) rotate(-180)" height="16.54" width="16.54" y="289.09" x="123.65" class="cls-2"/>
  <g>
    <rect transform="translate(760.15 429.28) rotate(-180)" height="16.54" width="16.54" y="206.37" x="371.8" class="cls-3"/>
    <rect transform="translate(760.15 462.37) rotate(-180)" height="16.54" width="16.54" y="222.91" x="371.8" class="cls-3"/>
  </g>
  <g>
    <rect transform="translate(760.15 495.46) rotate(-180)" height="16.54" width="16.54" y="239.46" x="371.8" class="cls-3"/>
    <rect transform="translate(760.15 528.54) rotate(-180)" height="16.54" width="16.54" y="256" x="371.8" class="cls-3"/>
  </g>
  <g>
    <rect transform="translate(760.15 561.63) rotate(-180)" height="16.54" width="16.54" y="272.54" x="371.8" class="cls-3"/>
    <rect transform="translate(760.15 594.72) rotate(-180)" height="16.54" width="16.54" y="289.09" x="371.8" class="cls-3"/>
  </g>
  <rect transform="translate(727.07 363.11) rotate(-180)" height="16.54" width="16.54" y="173.28" x="355.26" class="cls-5"/>
  <rect transform="translate(727.07 396.2) rotate(-180)" height="16.54" width="16.54" y="189.83" x="355.26" class="cls-5"/>
  <rect transform="translate(693.98 330.02) rotate(-180)" height="16.54" width="16.54" y="156.74" x="338.72" class="cls-5"/>
  <rect transform="translate(363.11 296.93) rotate(-180)" height="16.54" width="16.54" y="140.2" x="173.28" class="cls-2"/>
  <rect transform="translate(396.2 296.93) rotate(-180)" height="16.54" width="16.54" y="140.2" x="189.83" class="cls-2"/>
  <rect transform="translate(363.11 727.07) rotate(-180)" height="16.54" width="16.54" y="355.26" x="173.28" class="cls-2"/>
  <rect transform="translate(396.2 727.07) rotate(-180)" height="16.54" width="16.54" y="355.26" x="189.83" class="cls-2"/>
  <rect height="16.54" width="16.54" y="338.72" x="338.72" class="cls-3"/>
  <rect height="16.54" width="16.54" y="305.63" x="355.26" class="cls-3"/>
  <rect height="16.54" width="16.54" y="322.17" x="355.26" class="cls-3"/>
  <rect height="16.54" width="16.54" y="355.26" x="322.17" class="cls-3"/>
  <rect height="16.54" width="16.54" y="355.26" x="305.63" class="cls-3"/>
  <rect transform="translate(627.8 296.93) rotate(-180)" height="16.54" width="16.54" y="140.2" x="305.63" class="cls-5"/>
  <rect transform="translate(660.89 296.93) rotate(-180)" height="16.54" width="16.54" y="140.2" x="322.17" class="cls-5"/>
  <g>
    <rect transform="translate(429.28 263.85) rotate(-180)" height="16.54" width="16.54" y="123.65" x="206.37" class="cls-2"/>
    <rect transform="translate(462.37 263.85) rotate(-180)" height="16.54" width="16.54" y="123.65" x="222.91" class="cls-2"/>
  </g>
  <g>
    <rect transform="translate(495.46 263.85) rotate(-180)" height="16.54" width="16.54" y="123.65" x="239.46" class="cls-2"/>
    <rect transform="translate(528.54 263.85) rotate(-180)" height="16.54" width="16.54" y="123.65" x="256" class="cls-2"/>
  </g>
  <g>
    <rect transform="translate(561.63 263.85) rotate(-180)" height="16.54" width="16.54" y="123.65" x="272.54" class="cls-2"/>
    <rect transform="translate(594.72 263.85) rotate(-180)" height="16.54" width="16.54" y="123.65" x="289.09" class="cls-2"/>
  </g>
  <rect transform="translate(429.28 396.2) rotate(-180)" height="16.54" width="16.54" y="189.83" x="206.37" class="cls-6"/>
  <g>
    <rect transform="translate(429.28 760.15) rotate(-180)" height="16.54" width="16.54" y="371.8" x="206.37" class="cls-3"/>
    <rect transform="translate(462.37 760.15) rotate(-180)" height="16.54" width="16.54" y="371.8" x="222.91" class="cls-3"/>
  </g>
  <g>
    <rect transform="translate(495.46 760.15) rotate(-180)" height="16.54" width="16.54" y="371.8" x="239.46" class="cls-3"/>
    <rect transform="translate(528.54 760.15) rotate(-180)" height="16.54" width="16.54" y="371.8" x="256" class="cls-3"/>
  </g>
  <g>
    <rect transform="translate(561.63 760.15) rotate(-180)" height="16.54" width="16.54" y="371.8" x="272.54" class="cls-3"/>
    <rect transform="translate(594.72 760.15) rotate(-180)" height="16.54" width="16.54" y="371.8" x="289.09" class="cls-3"/>
  </g>
  <rect transform="translate(363.11 429.28) rotate(-180)" height="16.54" width="16.54" y="206.37" x="173.28" class="cls-6"/>
  <rect transform="translate(363.11 462.37) rotate(-180)" height="16.54" width="16.54" y="222.91" x="173.28" class="cls-6"/>
  <rect transform="translate(594.72 561.63) rotate(-180)" height="16.54" width="16.54" y="272.54" x="289.09" class="cls-6"/>
  <rect transform="translate(561.63 594.42) rotate(-180)" height="16.54" width="16.54" y="288.94" x="272.54" class="cls-6"/>
</svg>